<?xml version="1.0" encoding="UTF-8" standalone="no"?>
<!DOCTYPE svg PUBLIC "-//W3C//DTD SVG 1.1//EN" "http://www.w3.org/Graphics/SVG/1.1/DTD/svg11.dtd">
<svg xmlns="http://www.w3.org/2000/svg" version="1.1" viewBox="0.00 0.00 32.00 32.00">
<path fill="#00a1d6" d="
  M 32.00 7.10
  L 32.00 20.99
  Q 30.42 26.30 25.47 25.88
  Q 23.38 25.70 25.25 27.00
  Q 26.46 27.83 26.41 29.23
  A 1.86 1.86 0.0 0 1 23.28 30.53
  C 20.42 27.84 19.00 25.17 14.41 25.97
  C 12.23 26.35 10.40 28.95 8.81 30.43
  A 1.89 1.88 37.2 0 1 6.66 30.72
  C 4.85 29.79 5.55 27.54 7.01 26.82
  A 0.47 0.47 0.0 0 0 6.78 25.93
  Q 1.45 26.27 0.00 20.87
  L 0.00 7.54
  Q 1.01 2.00 6.24 2.00
  Q 15.26 1.98 24.24 2.03
  Q 30.60 2.06 32.00 7.10
  Z
  M 28.1002 8.2011
  A 2.16 2.16 0.0 0 0 25.9439 6.0373
  L 6.0840 6.0027
  A 2.16 2.16 0.0 0 0 3.9202 8.1589
  L 3.8998 19.8189
  A 2.16 2.16 0.0 0 0 6.0561 21.9827
  L 25.9160 22.0173
  A 2.16 2.16 0.0 0 0 28.0798 19.8611
  L 28.1002 8.2011
  Z"
/>
<rect fill="#00a1d6" x="-1.94" y="-2.67" transform="translate(10.08,14.97) rotate(0.5)" width="3.88" height="5.34" rx="1.60"/>
<ellipse fill="#00a1d6" cx="0.00" cy="0.00" transform="translate(22.01,15.00) rotate(88.3)" rx="2.92" ry="2.09"/>
</svg>
